<?xml version="1.0" encoding="utf-8"?>
<!-- Generator: Adobe Illustrator 17.0.0, SVG Export Plug-In . SVG Version: 6.00 Build 0)  -->
<!DOCTYPE svg PUBLIC "-//W3C//DTD SVG 1.1//EN" "http://www.w3.org/Graphics/SVG/1.1/DTD/svg11.dtd">
<svg version="1.1" id="Layer_1" xmlns="http://www.w3.org/2000/svg" xmlns:xlink="http://www.w3.org/1999/xlink" x="0px" y="0px"
	 width="200px" height="52px" viewBox="0 0 200 52" enable-background="new 0 0 200 52" xml:space="preserve">
<path fill="#346a20" d="M38.586,34.798c4.041-3.152,6.553-7.293,7.848-9.95c0.44-0.886,1.14-1.954,1.684-2.735
	c0.155-0.234-0.026-0.521-0.259-0.521c-0.052,0-0.104,0-0.129,0.026c-0.078,0.026-0.13,0.052-0.207,0.104
	c-0.13,0.052-0.259,0.104-0.389,0.182c-0.389,0.156-0.803,0.339-1.217,0.469c-0.129,0.052-0.259,0.078-0.388,0.13
	c-0.181,0.052-0.363,0.104-0.544,0.13c-0.466,0.104-0.932,0.208-1.399,0.339c-0.699,0.182-1.373,0.365-2.046,0.599
	c-0.725,0.234-1.451,0.495-2.15,0.781c-0.674,0.286-1.347,0.599-2.02,0.938c-0.622,0.313-1.243,0.677-1.865,1.042
	c-0.518,0.313-1.01,0.625-1.476,0.99c-0.104,0.078-0.181,0.13-0.285,0.208c-0.181,0.13-0.337,0.26-0.518,0.391
	c-0.311,0.26-0.622,0.521-0.933,0.781c-0.026,0.026-0.052,0.052-0.078,0.052c-1.062,0.938-1.994,1.927-2.823,2.917
	c-0.156,0.573-0.311,1.198-0.544,1.849v-4.584c0.544-2.396,0.933-5.053,0.933-7.866c0-7.189-2.461-13.466-4.118-16.852
	c-0.544-1.172-0.984-2.735-1.243-3.647c0-0.078-0.078-0.13-0.181-0.13c-0.078,0-0.155,0.052-0.181,0.13
	c-0.233,0.912-0.674,2.448-1.217,3.542v0.052c-0.492,1.042-0.958,2.084-1.373,3.152c-0.104,0.26-0.207,0.521-0.311,0.781
	c-0.389,1.016-0.725,2.058-1.01,3.1c-0.104,0.391-0.207,0.807-0.311,1.198c-0.078,0.339-0.156,0.677-0.233,1.016
	c-0.104,0.443-0.181,0.886-0.259,1.328c-0.155,0.781-0.259,1.563-0.363,2.344c-0.026,0.313-0.078,0.651-0.104,0.964
	c-0.052,0.469-0.078,0.938-0.104,1.407c-0.026,0.313-0.026,0.625-0.026,0.938c0,0.182,0,0.365,0,0.547
	c0,0.573,0.026,1.146,0.052,1.745c0.026,0.495,0.078,0.99,0.104,1.485c0.104,0.99,0.233,1.98,0.414,2.969
	c0.052,0.26,0.104,0.547,0.155,0.808v4.845c-0.13-0.417-0.233-0.834-0.337-1.224c-1.088-1.302-2.357-2.605-3.833-3.751
	c-4.144-3.256-8.884-4.662-11.759-5.262c-0.907-0.13-1.968-0.573-2.771-0.938c-0.052-0.026-0.104-0.026-0.13-0.026
	c-0.259,0-0.44,0.287-0.259,0.521c0.259,0.365,0.492,0.729,0.751,1.12c0.052,0.104,0.13,0.182,0.181,0.287
	c0.285,0.443,0.544,0.912,0.751,1.328c0.104,0.182,0.181,0.391,0.285,0.573c0.337,0.625,0.673,1.25,1.036,1.875
	c0.026,0.052,0.052,0.078,0.078,0.13c1.45,2.37,3.548,5.131,6.449,7.397c0.881,0.677,1.787,1.302,2.694,1.823v1.797
	c-0.829-0.365-1.528-0.755-2.046-1.094c-2.901,0.339-5.439,1.224-7.123,1.979c-0.699,0.313-1.709,0.625-2.564,0.86
	c-0.363,0.104-0.337,0.625,0.026,0.703c0.829,0.182,1.839,0.417,2.487,0.703c2.072,0.938,5.413,2.11,9.221,2.136v0.86h5.102
	c-1.476,1.771-2.305,3.751-2.745,5.079c-0.155,0.469-0.337,0.964-0.518,1.381c-0.078,0.182,0.052,0.365,0.233,0.391
	c0.052,0,0.13,0,0.155-0.052c0.363-0.208,0.777-0.469,1.191-0.625c0.932-0.417,2.176-1.042,3.419-1.98v2.657h9.402v-2.813
	c1.295,1.016,2.642,1.719,3.6,2.136c0.414,0.182,0.855,0.417,1.191,0.625c0.052,0.026,0.104,0.052,0.155,0.052
	c0.181-0.026,0.311-0.182,0.233-0.391c-0.155-0.417-0.363-0.912-0.518-1.381c-0.44-1.354-1.295-3.308-2.746-5.079h5.103v-0.86
	c3.782-0.026,7.149-1.198,9.221-2.136c0.673-0.286,1.658-0.547,2.486-0.703c0.363-0.078,0.389-0.599,0.026-0.703
	c-0.855-0.234-1.865-0.547-2.564-0.86c-1.684-0.755-4.222-1.667-7.123-1.979c-0.518,0.339-1.243,0.729-2.046,1.094v-1.797
	C36.799,36.075,37.705,35.476,38.586,34.798z M34.001,28.86c3.859-3.021,8.237-4.402,11.241-5.027
	c0.129-0.026,0.259-0.052,0.389-0.104c-0.104,0.182-0.207,0.365-0.285,0.547c-1.347,2.709-3.73,6.564-7.511,9.533
	c-0.622,0.495-1.269,0.938-1.917,1.354h-4.973c4.274-3.386,7.201-5.861,7.201-5.861s-3.471,2.37-8.185,5.861h-1.088v-0.781
	C30.116,32.584,31.8,30.553,34.001,28.86z M21.361,11.512c0.829-2.891,1.865-5.288,2.59-6.772c0.104-0.234,0.207-0.443,0.311-0.677
	c0.104,0.234,0.207,0.443,0.311,0.677c1.476,3.047,3.963,9.221,3.963,16.279c0,2.474-0.311,4.845-0.777,6.981h-3.16
	c-0.13-6.329-0.337-10.705-0.337-10.705S24.029,21.671,23.926,28h-3.212c-0.466-2.162-0.777-4.506-0.777-6.981
	C19.937,17.946,20.429,14.742,21.361,11.512z M10.664,33.809C6.882,30.865,4.5,27.01,3.153,24.275
	c-0.104-0.182-0.181-0.365-0.285-0.547c0.13,0.026,0.259,0.078,0.389,0.104c3.005,0.625,7.408,2.006,11.241,5.027
	c2.072,1.615,3.704,3.516,4.947,5.262v1.042h-0.777c-4.74-3.49-8.185-5.861-8.185-5.861s2.927,2.474,7.201,5.861h-5.102
	C11.933,34.746,11.286,34.304,10.664,33.809z M3.904,40.477c2.046-0.912,5.18-1.98,8.677-2.006v1.98
	c-0.57,0.052-0.907,0.052-0.907,0.052s0.311,0,0.907,0.026v1.953C9.058,42.456,5.924,41.388,3.904,40.477z M16.44,49.202
	c0.518-1.276,1.321-2.839,2.564-4.22c0.104-0.13,0.233-0.234,0.337-0.365h0.078v1.198c-0.129,0.182-0.207,0.286-0.207,0.286
	s0.078-0.078,0.207-0.234v1.302C18.434,48.056,17.372,48.734,16.44,49.202z M29.469,44.983c1.243,1.381,2.072,2.943,2.564,4.22
	c-0.984-0.495-2.15-1.224-3.212-2.188v-1.381c0.285,0.313,0.44,0.495,0.44,0.495s-0.155-0.208-0.44-0.599v-0.912h0.285
	C29.235,44.722,29.365,44.853,29.469,44.983z M44.569,40.477c-1.994,0.912-5.128,2.006-8.651,2.032v-1.954c0.466,0,0.699,0,0.699,0
	s-0.259-0.026-0.699-0.052v-2.032C39.415,38.497,42.549,39.565,44.569,40.477z"/>
<g>
	<g>
		<path fill="#346a20" d="M55.726,37.97V17.522h8.062c6.407,0,10.852,4.078,10.852,10.239S70.196,37.97,63.789,37.97H55.726z
			 M70.196,27.761c0-3.617-2.207-6.407-6.407-6.407h-3.71v12.783h3.71C67.835,34.138,70.196,31.226,70.196,27.761z"/>
		<path fill="#346a20" d="M89.297,37.97l-4.016-7.266h-3.188v7.266H77.74V17.522h9.565c4.261,0,6.867,2.79,6.867,6.59
			c0,3.619-2.269,5.549-4.476,6.071l4.598,7.786h-4.997V37.97z M89.727,24.112c0-1.715-1.319-2.758-3.066-2.758h-4.568v5.517h4.568
			C88.408,26.872,89.727,25.831,89.727,24.112z"/>
		<path fill="#346a20" d="M111.556,37.97l-1.256-3.464h-8.768l-1.287,3.464h-4.967l7.91-20.448h5.456l7.879,20.448H111.556z
			 M105.916,21.875l-3.188,8.799h6.377L105.916,21.875z"/>
		<path fill="#346a20" d="M118.426,37.97V17.522h9.565c4.445,0,6.867,3.005,6.867,6.59c0,3.557-2.453,6.592-6.867,6.592h-5.211
			v7.266C122.78,37.97,118.426,37.97,118.426,37.97z M130.414,24.112c0-1.715-1.288-2.758-3.005-2.758h-4.629v5.517h4.629
			C129.126,26.872,130.414,25.799,130.414,24.112z"/>
		<path fill="#346a20" d="M149.393,37.97l-1.257-3.464h-8.768l-1.287,3.464h-4.967l7.91-20.448h5.456l7.879,20.448H149.393z
			 M143.752,21.875l-3.188,8.799h6.377L143.752,21.875z"/>
		<path fill="#346a20" d="M156.261,37.97V17.522h4.354v16.615h8.645v3.832L156.261,37.97L156.261,37.97z"/>
		<path fill="#346a20" d="M172.298,37.97V17.522h4.354V37.97H172.298z"/>
		<path fill="#346a20" d="M194.801,37.97l-9.749-13.335V37.97h-4.354V17.522h4.476l9.473,12.845V17.522H199V37.97H194.801z"/>
	</g>
	<g>
		<polygon fill="#346a20" points="80.949,46.18 83.077,46.18 82.013,43.361 		"/>
		<path fill="#346a20" d="M92.776,44.168c0-0.567-0.426-0.94-1.011-0.94h-1.419v1.88h1.419
			C92.351,45.108,92.776,44.736,92.776,44.168z"/>
		<polygon fill="#346a20" points="110.923,46.18 113.051,46.18 111.987,43.361 		"/>
		<polygon fill="#346a20" points="173.288,46.18 175.416,46.18 174.352,43.361 		"/>
		<path fill="#346a20" d="M55.726,40.552V50H199v-9.448C199,40.552,55.726,40.552,55.726,40.552z M63.102,46.021h-1.56v2.207h-1.037
			v-5.914h2.598c1.241,0,1.933,0.851,1.933,1.854C65.036,45.17,64.335,46.021,63.102,46.021z M74.726,48.229h-1.037v-2.58h-3.077
			v2.58h-1.037v-5.914h1.037v2.421h3.077v-2.421h1.037V48.229z M83.804,48.229l-0.435-1.135h-2.713l-0.435,1.135h-1.179l2.323-5.914
			h1.294l2.323,5.914H83.804z M92.687,48.229l-1.312-2.207h-1.028v2.207H89.31v-5.914h2.598c1.17,0,1.933,0.763,1.933,1.854
			c0,1.054-0.692,1.622-1.401,1.737l1.445,2.323C93.885,48.229,92.687,48.229,92.687,48.229z M104.701,48.229h-1.037V43.84
			l-1.817,4.389h-0.444l-1.809-4.389v4.389h-1.037v-5.914h1.463l1.605,3.892l1.614-3.892h1.463L104.701,48.229L104.701,48.229z
			 M113.778,48.229l-0.435-1.135h-2.713l-0.435,1.135h-1.179l2.323-5.914h1.294l2.323,5.914H113.778z M121.811,47.413
			c0.638,0,1.206-0.363,1.49-0.86l0.887,0.452c-0.452,0.709-1.179,1.329-2.376,1.329c-1.747,0-3.104-1.241-3.104-3.059
			c0-1.817,1.356-3.06,3.104-3.06c1.197,0,1.932,0.621,2.376,1.33L123.3,44c-0.284-0.488-0.851-0.861-1.49-0.861
			c-1.17,0-2.04,0.896-2.04,2.137S120.64,47.413,121.811,47.413z M132.75,43.228h-3.015v1.534h2.952v0.913h-2.952v1.64h3.015v0.913
			h-4.052v-5.914h4.052V43.228z M142.61,45.888c0,1.472-0.843,2.447-2.553,2.447c-1.72,0-2.562-0.984-2.562-2.438v-3.582h1.046
			v3.546c0,0.94,0.523,1.552,1.516,1.552c0.984,0,1.508-0.612,1.508-1.552v-3.546h1.046v3.573H142.61z M151.785,43.228h-1.791v5.001
			h-1.037v-5.001h-1.791v-0.913h4.619V43.228z M157.38,48.229h-1.037v-5.914h1.037V48.229z M165.159,47.413
			c0.638,0,1.206-0.363,1.49-0.86l0.887,0.452c-0.452,0.709-1.179,1.329-2.376,1.329c-1.747,0-3.104-1.241-3.104-3.059
			c0-1.817,1.356-3.06,3.104-3.06c1.197,0,1.932,0.621,2.376,1.33L166.649,44c-0.284-0.488-0.851-0.861-1.49-0.861
			c-1.17,0-2.04,0.896-2.04,2.137S163.989,47.413,165.159,47.413z M176.143,48.229l-0.434-1.135h-2.713l-0.434,1.135h-1.18
			l2.323-5.914h1.294l2.323,5.914H176.143z M185.293,48.229h-3.643v-5.914h1.037v5.001h2.606V48.229z M191.934,48.335
			c-1.091,0-1.88-0.381-2.403-0.94l0.576-0.798c0.408,0.434,1.047,0.816,1.871,0.816c0.851,0,1.188-0.417,1.188-0.807
			c0-1.241-3.449-0.47-3.449-2.65c0-0.976,0.861-1.729,2.155-1.729c0.922,0,1.667,0.292,2.216,0.824l-0.593,0.772
			c-0.461-0.461-1.091-0.674-1.711-0.674c-0.612,0-1.003,0.292-1.003,0.736c0,1.099,3.44,0.416,3.44,2.624
			C194.221,47.493,193.53,48.335,191.934,48.335z"/>
		<path fill="#346a20" d="M62.961,43.228h-1.419v1.88h1.419c0.586,0,1.011-0.372,1.011-0.939
			C63.972,43.601,63.546,43.228,62.961,43.228z"/>
	</g>
</g>
</svg>
